#!OML:ASF E:\Style4\Style4.ASF
:FULLY-SPECIFIED
:DEGREES
1986
root 0.0827964 17.8783 -1.43772 1.50609 -0.894504 4.45084
lowerback 6.43489 4.3238 2.12329
upperback 2.61523 5.86596 -0.818736
thorax -0.596042 2.95099 -2.4101
lowerneck 2.43995 -6.85664 -6.08472
upperneck 2.69856 -9.30306 3.00049
head 0.880942 -4.6928 1.92738
rclavicle -4.83047e-014 -3.97569e-015
rhumerus 14.3046 11.8384 -62.5519
rradius 87.9392
rwrist -40.7023
rhand -24.1679 28.0231
rfingers 7.12502
rthumb 2.31525 -1.94404
lclavicle -4.83047e-014 -3.97569e-015
lhumerus -53.6127 -45.944 90.7448
lradius 112.303
lwrist 31.0762
lhand -17.1583 19.7053
lfingers 7.12502
lthumb 9.08264 49.4897
rfemur -14.966 2.87308 13.2812
rtibia 31.9242
rfoot -17.2134 -13.3431
rtoes -12.8453
lfemur -10.809 -1.19997 -23.6882
ltibia 24.9986
lfoot -16.3923 8.26443
ltoes -12.1278
1987
root 0.0752538 17.8705 -1.45289 1.50377 -0.712875 4.36417
lowerback 6.53449 4.35769 2.37031
upperback 2.68284 5.92852 -0.683886
thorax -0.566895 2.98415 -2.41668
lowerneck 2.63323 -7.02433 -6.08062
upperneck 2.59527 -9.53011 2.69452
head 0.809243 -4.80699 1.83541
rclavicle -5.09883e-014 2.38542e-014
rhumerus 14.7657 11.7723 -62.4452
rradius 86.201
rwrist -40.276
rhand -25.0101 28.2756
rfingers 7.12502
rthumb 1.5018 -1.69889
lclavicle -5.09883e-014 2.38542e-014
lhumerus -54.088 -46.2232 90.9275
lradius 112.722
lwrist 31.2193
lhand -17.2038 19.7784
lfingers 7.12502
lthumb 9.03868 49.5648
rfemur -15.0882 2.91653 13.4059
rtibia 32.1276
rfoot -17.3157 -13.4931
rtoes -12.4098
lfemur -11.0866 -1.23919 -23.5589
ltibia 25.3552
lfoot -16.3972 8.10066
ltoes -11.6954
1988
root 0.071634 17.8605 -1.46508 1.47311 -0.552494 4.45272
lowerback 6.61263 4.40678 2.47166
upperback 2.77847 6.00141 -0.610569
thorax -0.504553 3.0229 -2.40331
lowerneck 2.83686 -7.19139 -6.04832
upperneck 2.45934 -9.75819 2.44913
head 0.727057 -4.92053 1.76023
rclavicle 1.08338e-014 1.82882e-014
rhumerus 15.2588 11.5696 -62.3858
rradius 84.5055
rwrist -40.3005
rhand -25.3486 28.3063
rfingers 7.12502
rthumb 1.17484 -1.67021
lclavicle 1.08338e-014 1.82882e-014
lhumerus -54.5074 -46.4786 91.0549
lradius 113.102
lwrist 31.2232
lhand -17.1627 19.6064
lfingers 7.12502
lthumb 9.07839 49.391
rfemur -15.2036 2.872 13.3062
rtibia 32.3966
rfoot -17.4861 -13.4616
rtoes -11.883
lfemur -11.3444 -1.25316 -23.6485
ltibia 25.758
lfoot -16.5118 8.03965
ltoes -12.205
1989
root 0.0686 17.8487 -1.479 1.45012 -0.373344 4.53808
lowerback 6.71285 4.44344 2.58237
upperback 2.8836 6.05883 -0.525759
thorax -0.445671 3.05401 -2.38391
lowerneck 2.94694 -7.36601 -6.01387
upperneck 2.39953 -9.99092 2.16339
head 0.681991 -5.03636 1.66715
rclavicle -4.67144e-014 -7.95139e-016
rhumerus 15.7446 11.2906 -62.415
rradius 82.7891
rwrist -40.3933
rhand -24.894 28.5381
rfingers 7.12502
rthumb 1.61395 -1.43555
lclavicle -4.67144e-014 -7.95139e-016
lhumerus -54.879 -46.7131 91.1628
lradius 113.532
lwrist 31.4643
lhand -17.2168 19.4381
lfingers 7.12502
lthumb 9.0261 49.225
rfemur -15.3355 2.7152 13.2085
rtibia 32.6854
rfoot -17.6634 -13.3476
rtoes -11.5408
lfemur -11.6253 -1.22936 -23.7298
ltibia 26.1955
lfoot -16.5975 7.88156
ltoes -12.5146
1990
root 0.0642636 17.8358 -1.49558 1.39748 -0.200888 4.53882
lowerback 6.82311 4.47287 2.74456
upperback 3.03441 6.11011 -0.369493
thorax -0.347839 3.08316 -2.31784
lowerneck 3.05767 -7.54459 -6.06421
upperneck 2.32125 -10.2311 1.84298
head 0.633385 -5.15601 1.57846
rclavicle -5.46658e-014 6.36111e-015
rhumerus 16.2399 11.1389 -62.3772
rradius 81.1405
rwrist -40.1121
rhand -25.1063 28.471
rfingers 7.12502
rthumb 1.40892 -1.5041
lclavicle -5.46658e-014 6.36111e-015
lhumerus -55.012 -46.867 91.1572
lradius 113.928
lwrist 31.7298
lhand -17.1867 19.2823
lfingers 7.12502
lthumb 9.05517 49.0679
rfemur -15.4632 2.5975 13.2192
rtibia 32.9983
rfoot -17.7886 -13.328
rtoes -11.5923
lfemur -11.874 -1.22326 -23.716
ltibia 26.6191
lfoot -16.6318 7.83394
ltoes -13.1
1991
root 0.0563729 17.8245 -1.51198 1.31913 -0.0866714 4.39722
lowerback 6.93429 4.5132 2.99957
upperback 3.19566 6.18171 -0.166745
thorax -0.233553 3.12353 -2.25571
lowerneck 3.23851 -7.69836 -6.11923
upperneck 2.22005 -10.444 1.55287
head 0.56632 -5.26149 1.50488
rclavicle -1.2921e-014 -1.35174e-014
rhumerus 16.7415 10.9059 -62.3563
rradius 79.5973
rwrist -40.437
rhand -24.6884 28.3298
rfingers 7.12502
rthumb 1.81248 -1.64226
lclavicle -1.2921e-014 -1.35174e-014
lhumerus -54.9228 -46.9169 90.9208
lradius 114.264
lwrist 31.6669
lhand -16.9729 19.2038
lfingers 7.12502
lthumb 9.26145 48.9804
rfemur -15.5901 2.58828 13.4185
rtibia 33.3223
rfoot -17.8259 -13.4691
rtoes -11.7402
lfemur -12.1115 -1.13345 -23.5303
ltibia 27.0514
lfoot -16.6607 7.72873
ltoes -13.4519
1992
root 0.050869 17.8137 -1.52685 1.23177 0.0140203 4.42795
lowerback 7.0522 4.56384 3.11428
upperback 3.35057 6.25802 -0.0370363
thorax -0.136008 3.16535 -2.19251
lowerneck 3.43215 -7.85942 -6.13711
upperneck 2.11586 -10.6677 1.28837
head 0.495764 -5.37158 1.43468
rclavicle 2.60408e-014 -1.59028e-015
rhumerus 17.1712 10.5028 -62.4796
rradius 78.1565
rwrist -41.4368
rhand -23.435 28.5095
rfingers 7.12502
rthumb 3.02298 -1.44886
lclavicle 2.60408e-014 -1.59028e-015
lhumerus -54.9552 -47.0693 90.7657
lradius 114.721
lwrist 31.6942
lhand -16.9548 19.4237
lfingers 7.12502
lthumb 9.27899 49.1995
rfemur -15.7169 2.58895 13.4053
rtibia 33.6702
rfoot -17.9389 -13.5121
rtoes -11.4492
lfemur -12.3359 -1.04108 -23.5389
ltibia 27.4918
lfoot -16.7621 7.5681
ltoes -13.5617
1993
root 0.0463986 17.8002 -1.54109 1.13939 0.116106 4.5141
lowerback 7.24105 4.58409 3.13593
upperback 3.46128 6.29129 0.109942
thorax -0.13802 3.18199 -2.06764
lowerneck 3.71035 -8.00996 -6.17773
upperneck 1.96311 -10.8843 0.941398
head 0.391799 -5.47667 1.34894
rclavicle -2.20651e-014 1.11319e-014
rhumerus 17.5421 10.2465 -62.5726
rradius 76.7089
rwrist -42.4083
rhand -22.6578 28.5001
rfingers 7.12502
rthumb 3.77357 -1.44627
lclavicle -2.20651e-014 1.11319e-014
lhumerus -55.2521 -47.1918 90.8844
lradius 115.272
lwrist 31.9917
lhand -17.1271 19.5783
lfingers 7.12502
lthumb 9.11274 49.3615
rfemur -15.8543 2.54844 13.3212
rtibia 34.0626
rfoot -18.0766 -13.4944
rtoes -11.1724
lfemur -12.5489 -0.97759 -23.6131
ltibia 27.9382
lfoot -16.8791 7.42077
ltoes -13.6373
